<svg width="36" height="36" viewBox="0 0 36 36" fill="none" xmlns="http://www.w3.org/2000/svg">
<rect width="36" height="36" rx="18" fill="#10A554"/>
<path d="M26.414 12.5919H19.33V15.6499C20.034 15.2392 20.8407 15.0339 21.75 15.0339C22.7913 15.0339 23.642 15.3565 24.302 16.0019C24.9767 16.6472 25.314 17.5419 25.314 18.6859C25.314 19.3312 25.1893 20.0499 24.94 20.8419C24.7053 21.6339 24.3167 22.4405 23.774 23.2619L21.2 21.8319C21.5373 21.3772 21.816 20.9079 22.036 20.4239C22.256 19.9399 22.366 19.4412 22.366 18.9279C22.366 18.3852 22.2487 18.0039 22.014 17.7839C21.794 17.5639 21.5007 17.4539 21.134 17.4539C20.7967 17.4539 20.144 17.7619 20.144 17.7619C20.144 17.7619 19.1147 18.1872 18.88 18.4219V23.8559H16.382V21.0619C15.898 21.3405 15.4067 21.5532 14.908 21.6999C14.424 21.8465 13.8593 21.9199 13.214 21.9199C12.4073 21.9199 11.6667 21.7732 10.992 21.4799C10.332 21.1719 9.804 20.7245 9.408 20.1379C9.012 19.5512 8.814 18.8179 8.814 17.9379C8.814 17.1165 9.012 16.4125 9.408 15.8259C9.804 15.2245 10.354 14.7625 11.058 14.4399C11.762 14.1025 12.576 13.9339 13.5 13.9339C13.9107 13.9339 14.3213 13.9485 14.732 13.9779C15.1573 14.0072 15.4873 14.0585 15.722 14.1319L15.502 16.5739C15.0327 16.4565 14.512 16.3979 13.94 16.3979C13.2507 16.3979 12.7153 16.5372 12.334 16.8159C11.9527 17.0799 11.762 17.4539 11.762 17.9379C11.762 18.5245 11.9453 18.9279 12.312 19.1479C12.6787 19.3679 13.0747 19.4779 13.5 19.4779C14.116 19.4779 14.6587 19.3385 15.128 19.0599C15.612 18.7812 16.03 18.4585 16.382 18.0919V12.5919H8V10.1719H26.414V12.5919Z" fill="white"/>
<path d="M22.074 28.9819C21.6927 29.1725 21.238 29.3485 20.71 29.5099C20.1673 29.6712 19.522 29.7519 18.774 29.7519C18.0407 29.7519 17.388 29.6125 16.816 29.3339C16.244 29.0699 15.7967 28.6959 15.474 28.2119C15.1367 27.7425 14.968 27.1925 14.968 26.5619C14.968 25.5059 15.342 24.6625 16.09 24.0319C16.8233 23.4159 17.4293 23.0639 18.808 22.9759L19.072 25.2419C18.324 25.2859 18.2607 25.4252 17.982 25.6599C17.7033 25.9092 17.564 26.1952 17.564 26.5179C17.564 27.1925 18.0113 27.5299 18.906 27.5299C19.2433 27.5299 19.588 27.4785 19.94 27.3759C20.292 27.2732 20.7173 27.0972 21.216 26.8479L22.074 28.9819Z" fill="white"/>
</svg>
